<?xml version="1.0" encoding="UTF-8" standalone="no"?>
<!-- Created with Inkscape (http://www.inkscape.org/) -->

<svg
   width="44.041321mm"
   height="49.988052mm"
   viewBox="0 0 44.041321 49.988052"
   version="1.1"
   id="svg5"
   xml:space="preserve"
   xmlns:inkscape="http://www.inkscape.org/namespaces/inkscape"
   xmlns:sodipodi="http://sodipodi.sourceforge.net/DTD/sodipodi-0.dtd"
   xmlns="http://www.w3.org/2000/svg"
   xmlns:svg="http://www.w3.org/2000/svg"><sodipodi:namedview
     id="namedview7"
     pagecolor="#ffffff"
     bordercolor="#000000"
     borderopacity="0.25"
     inkscape:showpageshadow="2"
     inkscape:pageopacity="0.0"
     inkscape:pagecheckerboard="0"
     inkscape:deskcolor="#d1d1d1"
     inkscape:document-units="mm"
     showgrid="false" /><defs
     id="defs2" /><g
     inkscape:label="Calque 1"
     inkscape:groupmode="layer"
     id="layer1"
     transform="translate(-70.24415,-158.80827)"><path
       style="fill:#ffffff;fill-opacity:1;stroke-width:0.264583"
       d="m 71.240109,208.00562 -0.86407,-0.77147 -0.08289,-4.95325 c -0.04687,-2.80075 0.02333,-5.05947 0.161549,-5.19768 0.149532,-0.14954 2.339029,1.04177 5.639142,3.06825 2.967085,1.82199 5.552233,3.40678 5.744774,3.52176 0.245072,0.14635 -0.07236,0.45464 -1.058334,1.02782 -8.046882,4.67795 -8.0145,4.66673 -9.540171,3.30457 z m 9.443272,-8.70516 c -9.458981,-5.70678 -9.501171,-5.73501 -9.976202,-6.67429 -0.407972,-0.80668 -0.462658,-1.79979 -0.46302,-8.40859 -3.44e-4,-6.33557 0.05763,-7.48066 0.375087,-7.40834 0.206524,0.0471 3.419959,1.81196 7.140967,3.92201 l 6.765467,3.83646 0.0028,8.40052 c 0.0015,4.62028 -0.09165,8.40052 -0.207062,8.40052 -0.115415,0 -1.752525,-0.93073 -3.638021,-2.06829 z m 7.022867,-6.72118 v -8.03455 l 3.770312,-2.14583 c 2.073672,-1.1802 4.36563,-2.4711 5.09323,-2.86866 0.7276,-0.39756 2.0139,-1.1234 2.85845,-1.613 0.84454,-0.48959 1.64804,-0.89016 1.78557,-0.89016 0.39595,0 -5.3e-4,14.79471 -0.41825,15.61042 -0.19485,0.38042 -1.33316,1.23462 -2.67916,2.01048 -1.2872,0.74196 -3.47145,2.00222 -4.853902,2.80056 -1.382448,0.79835 -3.198151,1.83714 -4.034896,2.30842 l -1.521354,0.85687 z M 104.375,183.93151 c 0,-5.6127 0.0728,-7.16901 0.33546,-7.16901 0.18449,0 0.75004,0.27647 1.25677,0.61438 0.50672,0.33791 2.4257,1.47012 4.26441,2.51602 1.8387,1.0459 3.50558,2.09741 3.70416,2.3367 0.46923,0.56539 0.46521,2.52818 -0.006,3.09637 -0.33748,0.40664 -4.34254,2.86175 -8.03309,4.9243 l -1.52136,0.85024 v -7.169 z m -25.217539,-5.92639 c -5.738311,-3.26925 -6.506779,-3.78204 -6.106443,-4.07478 1.150354,-0.84116 13.046223,-7.48659 13.401612,-7.48659 0.627897,0 13.49227,7.44889 13.24687,7.67037 -0.49982,0.4511 -13.413407,7.67365 -13.683546,7.65318 -0.161745,-0.0122 -3.248067,-1.70523 -6.858493,-3.76218 z m -8.912725,-11.8727 c 9e-4,-4.64312 0.0495,-5.1922 0.529289,-5.97912 0.565098,-0.92685 1.638381,-1.4848 2.528768,-1.31459 0.594763,0.1137 9.369183,5.00587 9.373644,5.22627 0.0032,0.16003 -11.608791,6.97032 -12.096669,7.09452 -0.263022,0.067 -0.335806,-1.02514 -0.335032,-5.02708 z"
       id="path856"
       inkscape:export-filename="threejs-journey-purple.svg"
       inkscape:export-xdpi="96"
       inkscape:export-ydpi="96" /></g></svg>
