<?xml version="1.0" encoding="UTF-8" standalone="no"?>
<!-- Created with Inkscape (http://www.inkscape.org/) -->

<svg
   width="85.293579mm"
   height="85.369553mm"
   viewBox="0 0 85.293579 85.369553"
   version="1.1"
   id="svg5"
   xml:space="preserve"
   xmlns:inkscape="http://www.inkscape.org/namespaces/inkscape"
   xmlns:sodipodi="http://sodipodi.sourceforge.net/DTD/sodipodi-0.dtd"
   xmlns="http://www.w3.org/2000/svg"
   xmlns:svg="http://www.w3.org/2000/svg"><sodipodi:namedview
     id="namedview7"
     pagecolor="#ffffff"
     bordercolor="#000000"
     borderopacity="0.25"
     inkscape:showpageshadow="2"
     inkscape:pageopacity="0.0"
     inkscape:pagecheckerboard="0"
     inkscape:deskcolor="#d1d1d1"
     inkscape:document-units="mm"
     showgrid="false" /><defs
     id="defs2" /><g
     inkscape:label="Calque 1"
     inkscape:groupmode="layer"
     id="layer1"
     transform="translate(-56.582677,-173.5146)"><path
       style="fill:#ffffff;fill-opacity:1;stroke-width:0.0416829"
       d="m 63.563129,258.87457 c -0.0917,-0.0104 -0.422636,-0.0747 -0.735407,-0.14276 -0.848791,-0.18476 -1.469007,-0.41194 -2.163177,-0.79235 -1.951514,-1.06945 -3.307344,-2.79484 -3.927531,-4.99805 l -0.134935,-0.47935 v -1.56311 -1.56311 l 0.134935,-0.47936 c 0.341757,-1.21409 0.878152,-2.22997 1.672684,-3.1679 0.377919,-0.44613 26.615748,-26.68015 26.671578,-26.66771 0.05683,0.0127 11.307164,11.24406 11.307164,11.28814 0,0.0577 -26.505642,26.54329 -26.792066,26.77182 -1.086484,0.86689 -2.185264,1.38866 -3.535679,1.67897 -0.430258,0.0925 -0.61959,0.1086 -1.41381,0.12028 -0.504363,0.007 -0.992053,0.005 -1.083756,-0.006 z m 61.482321,-0.0579 c -4.36521,-0.23104 -8.30382,-2.15597 -11.21116,-5.47926 -0.56379,-0.64446 -1.16389,-1.46925 -1.59219,-2.18836 -0.2179,-0.36584 -0.7027,-1.25935 -0.80288,-1.47974 -0.38009,-0.83613 -0.70814,-1.72947 -0.93373,-2.54266 -0.11345,-0.40894 -0.30528,-1.24716 -0.33865,-1.47974 -0.0115,-0.0802 -0.0495,-0.32409 -0.0845,-0.54188 -0.17566,-1.09368 -0.25501,-2.44496 -0.19285,-3.2841 0.10932,-1.47577 0.30668,-2.4376 0.82946,-4.04233 l 0.15298,-0.46958 -16.39781,-16.39786 -16.397816,-16.39785 -0.420577,0.14682 c -0.473207,0.16519 -0.59758,0.20125 -1.420967,0.41197 -1.522474,0.38964 -3.045473,0.53393 -4.335024,0.41071 -1.033012,-0.0987 -2.2504,-0.26273 -2.644174,-0.35626 -2.118117,-0.50314 -3.609108,-1.10536 -5.192218,-2.09719 -0.580485,-0.36368 -0.665449,-0.42224 -1.240864,-0.85536 -1.077491,-0.81102 -2.506992,-2.25752 -3.158164,-3.19572 -0.03357,-0.0484 -0.213006,-0.31097 -0.398736,-0.58356 -1.46974,-2.15705 -2.377204,-4.69479 -2.641899,-7.38813 -0.05468,-0.55638 -0.05467,-2.3112 1.9e-5,-2.90297 0.151694,-1.64146 0.670746,-3.55873 1.381846,-5.10424 l 0.162138,-0.35239 5.469647,5.46297 c 3.38847,3.38433 5.573125,5.53546 5.741601,5.65349 0.551305,0.38622 0.975755,0.59305 1.692055,0.8245 2.21027,0.71418 4.650382,-0.18503 5.945492,-2.19098 1.178713,-1.82568 1.082737,-4.2483 -0.241095,-6.08571 -0.0991,-0.13756 -2.6294,-2.6979 -5.622878,-5.68966 -2.993497,-2.99177 -5.442706,-5.4532 -5.442706,-5.46985 0,-0.0166 0.07972,-0.0666 0.177153,-0.11096 1.812165,-0.82524 3.578674,-1.30674 5.366677,-1.46281 0.625794,-0.0546 2.013549,-0.0541 2.692917,0.001 2.832494,0.22992 5.675671,1.29647 7.977914,2.99275 3.180394,2.34329 5.375079,5.71414 6.207829,9.5347 0.33429,1.53367 0.48293,3.41095 0.37749,4.76736 -0.0837,1.07616 -0.421,2.60812 -0.83914,3.81077 l -0.12873,0.37026 16.39879,16.3988 16.3988,16.39879 0.28967,-0.10016 c 0.95031,-0.32859 1.47183,-0.47023 2.4155,-0.65601 1.17989,-0.23228 2.6286,-0.32108 3.54305,-0.21716 0.25218,0.0287 0.67204,0.0717 0.93301,0.0957 1.72401,0.15836 3.82858,0.7603 5.37762,1.53807 0.77851,0.39089 1.66854,0.91152 2.08848,1.22167 1.19096,0.8796 1.45072,1.09987 2.29421,1.94541 1.15057,1.15338 2.05535,2.39456 2.81783,3.86552 0.30661,0.59152 0.364,0.71819 0.64856,1.43133 0.73009,1.82972 1.11748,3.87847 1.11525,5.89813 -0.002,2.10258 -0.49875,4.36195 -1.39669,6.35665 -0.10837,0.24072 -0.20446,0.44615 -0.21354,0.45652 -0.009,0.0104 -2.49651,-2.45746 -5.52761,-5.48405 -4.19035,-4.18411 -5.58102,-5.54846 -5.80287,-5.69307 -0.61753,-0.4025 -1.31118,-0.69863 -2.04247,-0.87197 -0.5639,-0.13366 -1.51014,-0.1359 -2.10499,-0.005 -2.12449,0.46761 -3.73231,2.10845 -4.11218,4.19667 -0.0833,0.45783 -0.0913,1.27963 -0.0175,1.79452 0.10698,0.7464 0.48881,1.69551 0.94377,2.34592 0.12586,0.17991 2.15716,2.2434 5.67909,5.76906 l 5.48315,5.48896 -0.24712,0.11115 c -1.14773,0.51625 -2.22434,0.87972 -3.38135,1.14158 -0.29362,0.0665 -0.62765,0.13311 -0.74228,0.14811 -0.11463,0.015 -0.39599,0.0543 -0.62525,0.0874 -0.91888,0.1325 -1.60548,0.15764 -2.70939,0.0992 z m -17.38306,-51.10251 -2.833,-2.83322 6.96556,-6.97144 c 3.83105,-3.83429 7.00313,-7.03709 7.04906,-7.11733 0.0459,-0.0802 0.31383,-0.59606 0.59533,-1.14628 0.28149,-0.55021 0.60024,-1.1692 0.70831,-1.37553 0.10808,-0.20633 0.37057,-0.71278 0.58331,-1.12544 0.39244,-0.76121 0.7385,-1.43015 1.2561,-2.42803 0.61379,-1.18332 0.87305,-1.68458 1.24503,-2.40719 0.21244,-0.41266 0.48432,-0.93787 0.6042,-1.16713 0.11988,-0.22925 0.35586,-0.68501 0.52441,-1.0128 0.35284,-0.68621 0.19782,-0.55979 1.51841,-1.23831 0.43559,-0.2238 0.99831,-0.51433 1.25049,-0.64562 0.90662,-0.47198 1.59517,-0.82911 2.24046,-1.16207 1.3496,-0.69637 1.98341,-1.0239 2.46971,-1.27628 0.27511,-0.14277 0.87534,-0.45343 1.33386,-0.69035 0.45851,-0.23692 1.11501,-0.57676 1.4589,-0.7552 0.34388,-0.17844 0.85483,-0.44209 1.13544,-0.58589 l 0.5102,-0.26145 2.79904,2.79866 2.79904,2.79867 -0.31323,0.59849 c -0.17229,0.32917 -0.46813,0.89861 -0.65744,1.26542 -0.1893,0.36681 -0.48002,0.92953 -0.64602,1.25049 -0.16601,0.32096 -0.45669,0.88368 -0.64595,1.25049 -0.35114,0.68056 -0.74074,1.43197 -1.16709,2.25088 -0.13128,0.25218 -0.40327,0.77738 -0.60441,1.16712 -0.20113,0.38973 -0.48249,0.9337 -0.62524,1.2088 -0.14275,0.27511 -0.47155,0.91286 -0.73067,1.41722 -0.25913,0.50437 -0.51291,0.98381 -0.56395,1.06542 -0.0768,0.12281 -0.21758,0.21185 -0.81632,0.51633 -0.39792,0.20236 -0.74226,0.3813 -0.76518,0.39765 -0.0229,0.0164 -0.4731,0.251 -1.00039,0.52144 -0.52729,0.27044 -1.14628,0.58947 -1.37554,0.70896 -0.22926,0.11948 -0.71695,0.37254 -1.08376,0.56235 -0.36681,0.1898 -0.87325,0.45259 -1.12543,0.58397 -0.47295,0.24639 -1.1932,0.61782 -2.7094,1.39725 -0.48143,0.24749 -1.19421,0.61613 -1.58395,0.8192 -0.38973,0.20306 -0.77365,0.40168 -0.85315,0.44137 -0.0799,0.0399 -3.22358,3.14906 -7.02699,6.94985 -3.78535,3.78272 -6.92841,6.91932 -6.9846,6.97022 l -0.10215,0.0925 z"
       id="path1809" /></g></svg>
