<?xml version="1.0" encoding="UTF-8" standalone="no"?>
<!-- Created with Inkscape (http://www.inkscape.org/) -->

<svg
   width="62.539791mm"
   height="62.637905mm"
   viewBox="0 0 62.539791 62.637905"
   version="1.1"
   id="svg5"
   xml:space="preserve"
   xmlns:inkscape="http://www.inkscape.org/namespaces/inkscape"
   xmlns:sodipodi="http://sodipodi.sourceforge.net/DTD/sodipodi-0.dtd"
   xmlns="http://www.w3.org/2000/svg"
   xmlns:svg="http://www.w3.org/2000/svg"><sodipodi:namedview
     id="namedview7"
     pagecolor="#ffffff"
     bordercolor="#000000"
     borderopacity="0.25"
     inkscape:showpageshadow="2"
     inkscape:pageopacity="0.0"
     inkscape:pagecheckerboard="0"
     inkscape:deskcolor="#d1d1d1"
     inkscape:document-units="mm"
     showgrid="false" /><defs
     id="defs2" /><g
     inkscape:label="Calque 1"
     inkscape:groupmode="layer"
     id="layer1"
     transform="translate(-63.553365,-57.408526)"><path
       style="fill:#ffffff;fill-opacity:1;stroke-width:0.264583"
       d="m 110.25428,119.91483 c -2.03729,-0.0381 -8.70479,-0.24725 -14.816665,-0.46482 -6.111875,-0.21757 -14.44625,-0.46362 -18.520834,-0.54677 -4.074583,-0.0832 -7.80239,-0.21179 -8.284016,-0.28585 -1.098671,-0.16895 -2.736136,-1.62487 -3.306289,-2.93972 -0.35939,-0.82881 -0.529252,-3.51076 -0.985087,-15.55358 -0.302947,-8.003646 -0.622046,-19.695966 -0.709109,-25.982946 -0.143495,-10.362 -0.116211,-11.54105 0.291781,-12.60937 0.551785,-1.44483 2.579996,-3.40564 4.011622,-3.87831 0.841217,-0.27774 4.840514,-0.30682 20.622765,-0.14995 25.314182,0.25162 32.249282,0.45794 33.469792,0.99574 1.2235,0.53912 2.34827,1.68979 2.93587,3.00348 0.43996,0.98363 0.47436,2.06885 0.44451,14.02291 -0.0178,7.12623 0.12895,18.924 0.32609,26.217266 l 0.35845,13.26049 -0.7295,1.49105 c -1.36978,2.79973 -3.51673,3.65505 -8.89167,3.54232 -1.38245,-0.029 -4.18041,-0.0839 -6.21771,-0.12194 z m -16.271873,-1.95759 c 3.710782,-0.15265 11.352023,-0.35803 16.980543,-0.4564 9.84452,-0.17204 10.26205,-0.20001 10.98021,-0.73566 1.73168,-1.29161 1.67958,-0.90388 2.10218,-15.64535 0.21176,-7.387136 0.35056,-18.967556 0.30844,-25.734276 -0.0728,-11.69112 -0.1029,-12.3556 -0.60575,-13.35797 -0.29104,-0.58016 -0.94588,-1.3375 -1.4552,-1.68298 l -0.92605,-0.62813 -9.92187,0.19184 c -5.45703,0.10552 -17.244222,0.2701 -26.193754,0.36573 -15.313609,0.16363 -16.315521,0.20312 -17.013003,0.67052 -1.46288,0.98032 -1.449953,0.86758 -1.764292,15.38592 -0.160461,7.41117 -0.405908,16.09423 -0.545438,19.29569 -0.413399,9.485266 -0.615938,18.768076 -0.426007,19.524816 0.232901,0.92796 1.672918,2.54915 2.678195,3.01515 0.656495,0.30433 2.423613,0.34339 9.926795,0.21944 5.020469,-0.0829 12.164219,-0.27568 15.875001,-0.42834 z M 81.22888,105.84562 c -1.938433,-0.63866 -3.546792,-1.59438 -4.697309,-2.79126 l -0.914376,-0.95122 1.419827,-1.43768 1.419827,-1.437686 1.154708,1.016406 c 1.590896,1.40037 2.844762,1.94829 4.753532,2.07724 2.052982,0.13868 3.3637,-0.28873 4.167306,-1.35892 0.94312,-1.255976 1.079997,-2.325036 0.4733,-3.696576 -0.694098,-1.56912 -2.062481,-2.22907 -5.107177,-2.4631 l -2.269889,-0.17448 -0.332259,-1.29641 -0.332258,-1.2964 3.201856,-3.40298 c 1.76102,-1.87163 3.201855,-3.47475 3.201855,-3.56249 0,-0.0877 -2.321719,-0.15951 -5.159375,-0.15951 h -5.159375 v -1.85209 -1.85208 h 8.202083 8.202084 l -0.0114,1.52135 -0.0114,1.52136 -3.40799,3.57187 -3.407988,3.57188 1.993736,0.61226 c 1.617264,0.49664 2.22923,0.84775 3.240885,1.8594 3.376851,3.37685 2.059941,9.333406 -2.5636,11.595496 -1.993861,0.9755 -5.724225,1.15405 -8.056583,0.38562 z m 21.35249,0.24224 c -2.5016,-0.54105 -7.276047,-2.95493 -7.276047,-3.67865 0,-0.13197 0.549596,-0.90754 1.221315,-1.72348 l 1.221321,-1.483526 1.00492,0.79591 c 1.635811,1.295576 3.845211,2.172736 5.830551,2.314786 2.38855,0.1709 3.4872,-0.0706 4.46128,-0.98048 0.68309,-0.63811 0.8127,-0.95647 0.8127,-1.996296 0,-1.66738 -0.84593,-2.49418 -3.30729,-3.23248 -1.01865,-0.30555 -2.87945,-0.86474 -4.13511,-1.24266 -2.849781,-0.85768 -4.643121,-2.02899 -5.512481,-3.60043 -0.887384,-1.60402 -0.926579,-4.6172 -0.0811,-6.23576 1.63875,-3.13723 5.360451,-4.67382 9.818441,-4.05377 2.34152,0.32568 4.90001,1.28847 6.10332,2.29675 l 0.85537,0.71673 -1.10132,1.53524 c -0.60573,0.84438 -1.1796,1.49922 -1.27526,1.45521 -0.0957,-0.044 -1.0669,-0.52733 -2.15831,-1.07402 -4.41181,-2.20992 -8.46667,-1.31873 -8.46667,1.86084 0,1.82829 1.06729,2.54647 5.59958,3.76796 3.71609,1.00151 5.45964,1.82839 6.66227,3.15955 2.04444,2.26295 1.99554,6.259386 -0.10782,8.811116 -0.44412,0.5388 -1.55215,1.33779 -2.5074,1.80805 -1.4826,0.72988 -2.03892,0.85372 -4.15777,0.92547 -1.34538,0.0456 -2.9224,-0.0202 -3.50448,-0.14606 z M 84.72199,78.330674 c 0,-1.26543 0.958447,-3.97694 1.901943,-5.38072 1.81908,-2.70651 5.567983,-4.70815 8.817979,-4.70815 2.886957,0 6.416508,1.64535 8.200918,3.82299 1.24697,1.52177 2.25433,3.82641 2.43417,5.56893 l 0.15028,1.45599 h -2.01827 -2.01826 l -0.16971,-1.06126 c -0.26715,-1.67067 -1.6351,-3.6999 -3.105691,-4.60702 -1.62453,-1.00207 -4.082066,-1.2421 -5.840725,-0.57046 -2.073849,0.79201 -3.700444,2.78774 -4.076975,5.00219 l -0.187763,1.10426 -2.043948,0.0773 -2.043948,0.0773 z"
       id="path4788" /></g></svg>
