<?xml version="1.0" standalone="no"?>
<!DOCTYPE svg PUBLIC "-//W3C//DTD SVG 20010904//EN"
 "http://www.w3.org/TR/2001/REC-SVG-20010904/DTD/svg10.dtd">
<svg version="1.0" xmlns="http://www.w3.org/2000/svg"
 width="512.000000pt" height="512.000000pt" viewBox="0 0 512.000000 512.000000"
 preserveAspectRatio="xMidYMid meet">

<g transform="translate(0.000000,512.000000) scale(0.100000,-0.100000)"
fill="#ffffff" stroke="none">
<path d="M3650 4765 c-191 -53 -340 -176 -422 -347 -31 -66 -33 -68 -70 -68
-20 0 -216 11 -435 25 -560 35 -562 35 -619 41 l-50 5 -13 50 c-16 62 -79 158
-131 199 -93 73 -216 107 -326 90 -142 -23 -249 -101 -311 -228 -37 -73 -38
-80 -38 -181 0 -94 3 -113 27 -163 l26 -56 -140 -160 -141 -159 -59 19 c-71
22 -191 24 -264 4 -236 -63 -392 -299 -357 -540 46 -324 394 -512 688 -372 39
18 88 48 109 66 l37 33 485 -239 c267 -131 500 -245 519 -253 34 -13 35 -15
27 -55 -4 -22 -7 -88 -7 -146 0 -123 23 -210 80 -304 19 -33 34 -63 33 -67 -2
-4 -183 -169 -402 -367 l-399 -359 -66 34 c-267 134 -623 -34 -690 -328 -24
-102 -5 -242 45 -341 31 -62 114 -151 170 -184 147 -86 338 -93 494 -17 71 34
169 132 203 203 76 156 69 351 -18 481 l-25 38 402 362 401 362 31 -18 c73
-42 150 -76 208 -92 76 -20 222 -22 298 -4 66 16 172 63 214 94 17 13 36 27
43 30 7 5 142 -130 362 -364 l349 -370 -23 -35 c-155 -228 -53 -570 208 -699
65 -32 88 -38 164 -42 162 -10 283 35 389 142 186 188 191 482 12 671 -101
107 -212 155 -358 156 -89 1 -181 -23 -246 -62 l-30 -19 -285 302 c-156 166
-315 334 -353 374 l-69 73 36 67 c56 107 71 172 71 298 0 96 -4 121 -30 195
-38 108 -86 180 -173 263 l-69 65 205 343 c112 189 206 345 207 347 2 1 32 -5
67 -15 75 -20 233 -22 298 -4 23 7 45 11 47 9 2 -3 51 -160 109 -351 58 -191
108 -353 111 -360 3 -9 -13 -23 -49 -40 -74 -37 -144 -109 -181 -187 -29 -61
-31 -72 -31 -180 0 -109 2 -119 32 -182 163 -344 672 -300 767 67 64 243 -77
473 -316 519 l-58 11 -25 80 c-13 44 -65 214 -114 378 -91 300 -98 327 -82
327 17 0 140 122 174 172 79 121 113 268 96 417 -28 248 -191 454 -422 532
-83 28 -268 36 -347 14z m-1022 -545 c260 -17 489 -30 508 -30 l34 0 0 -58 c0
-78 32 -198 72 -275 19 -36 66 -96 110 -142 43 -44 78 -81 78 -83 0 -9 -412
-692 -418 -692 -4 0 -39 7 -77 15 -177 37 -347 0 -501 -110 -55 -39 -137 -126
-162 -171 -7 -12 -108 34 -508 231 -274 135 -501 250 -502 255 -2 6 3 31 12
57 51 151 14 333 -94 463 l-38 46 115 129 c63 72 120 136 127 143 10 10 25 6
82 -20 65 -31 75 -33 179 -33 98 0 116 3 167 27 99 46 184 138 222 240 l18 46
52 -4 c28 -3 264 -18 524 -34z"/>
</g>
</svg>
