<?xml version="1.0" encoding="UTF-8" standalone="no"?>
<!-- Created with Inkscape (http://www.inkscape.org/) -->

<svg
  width="210mm"
  height="297mm"
  viewBox="0 0 210 297"
  version="1.1"
  id="svg5"
  xml:space="preserve"
  inkscape:export-filename="image.svg"
  inkscape:export-xdpi="96"
  inkscape:export-ydpi="96"
  xmlns:inkscape="http://www.inkscape.org/namespaces/inkscape"
  xmlns:sodipodi="http://sodipodi.sourceforge.net/DTD/sodipodi-0.dtd"
  xmlns="http://www.w3.org/2000/svg"
  xmlns:svg="http://www.w3.org/2000/svg"><sodipodi:namedview
     id="namedview7"
     pagecolor="#ffffff"
     bordercolor="#000000"
     borderopacity="0.25"
     inkscape:showpageshadow="2"
     inkscape:pageopacity="0.0"
     inkscape:pagecheckerboard="0"
     inkscape:deskcolor="#d1d1d1"
     inkscape:document-units="mm"
     showgrid="false" /><defs
     id="defs2" /><g
     inkscape:label="Calque 1"
     inkscape:groupmode="layer"
     id="layer1"><g
       id="g22061"
       inkscape:label="ciel"
       transform="translate(4.3752232,-20.660776)"><path
         style="fill:#ff2727;fill-opacity:1;stroke:#000000;stroke-width:1;stroke-dasharray:none;stroke-opacity:1"
         d="M 10.377771,72.327703 C 8.24257,71.738688 6.49286,69.946855 5.92537,67.768116 5.08005,64.522714 7.08212,61.059354 10.324501,60.158102 l 0.776127,-0.215732 0.01046,-1.119449 c 0.03138,-3.356221 2.240161,-6.22602 5.551775,-7.213249 1.248983,-0.372334 3.459381,-0.298088 4.642568,0.155944 0.102552,0.03935 0.347291,-0.308761 0.655446,-0.93227 0.937155,-1.896205 2.873153,-3.448793 4.985669,-3.99829 1.141505,-0.296924 3.231632,-0.204179 4.362192,0.193563 1.672401,0.588366 3.178541,1.845724 4.101623,3.424123 0.48272,0.825412 0.509738,0.847739 1.028452,0.849925 0.883753,0.0038 2.238937,0.349297 3.036175,0.774223 0.816623,0.435252 1.801416,1.329638 2.320485,2.107446 0.232099,0.34779 0.387428,0.4655 0.532929,0.403859 1.5731,-0.666415 2.97888,-0.855346 4.308416,-0.579031 2.581274,0.536459 4.617136,2.782235 4.952027,5.462618 l 0.09107,0.728927 0.821116,0.416777 c 1.554439,0.788993 2.926572,2.563799 3.277382,4.239186 0.617053,2.946872 -0.812667,5.795325 -3.569592,7.111745 l -1.008301,0.481465 -11.511808,0.03573 c -10.694466,0.03319 -11.523181,0.02017 -11.672051,-0.18342 -0.419328,-0.573466 -0.538308,-0.567542 11.332912,-0.564247 7.904936,0.0022 11.356533,-0.03968 11.721589,-0.142196 1.532595,-0.430398 2.915191,-1.607209 3.593035,-3.05825 0.379273,-0.811902 0.40847,-0.974875 0.412557,-2.302892 0.0044,-1.395245 -0.0072,-1.452514 -0.481869,-2.413502 -0.690794,-1.398367 -1.769447,-2.344258 -3.342557,-2.931148 -0.311346,-0.116155 -0.341779,-0.198502 -0.410856,-1.111864 -0.215869,-2.854297 -2.645974,-5.114456 -5.499026,-5.114456 -0.955177,0 -2.012308,0.257789 -2.757346,0.672396 -0.256344,0.142655 -0.556577,0.238906 -0.667181,0.213892 -0.110606,-0.02502 -0.453859,-0.422194 -0.762784,-0.882621 -1.119388,-1.668341 -2.513268,-2.441955 -4.611471,-2.559396 l -1.203987,-0.06739 -0.412945,-0.855128 c -0.556439,-1.152274 -1.929053,-2.528062 -3.064712,-3.071798 -1.104958,-0.529036 -1.916525,-0.714006 -3.133291,-0.714129 -2.818763,-2.84e-4 -5.357813,1.758356 -6.372533,4.413848 -0.191255,0.500505 -0.420847,0.910011 -0.510207,0.910011 -0.08936,0 -0.506289,-0.119342 -0.926511,-0.265197 -2.449531,-0.850225 -5.173953,-0.203522 -7.048654,1.673158 -1.457986,1.459525 -2.182352,3.399854 -2.013769,5.394192 0.0913,1.080091 0.0688,1.109627 -0.973739,1.278428 -0.261809,0.04239 -0.884338,0.281348 -1.383396,0.531016 -1.096816,0.548716 -1.957367,1.448852 -2.526042,2.642243 -0.374042,0.784945 -0.400367,0.935335 -0.396263,2.263703 0.0041,1.32099 0.03363,1.485479 0.412559,2.296635 0.536197,1.147818 1.559949,2.173228 2.716808,2.721206 l 0.876225,0.415049 7.328399,0.0364 c 7.69608,0.03823 7.747467,0.04228 7.535758,0.593978 -0.0733,0.191039 -0.74394,0.209362 -7.27842,0.198862 -5.376204,-0.0086 -7.347866,-0.053 -7.791175,-0.17529 z m 15.807168,-0.04474 c -0.168222,-0.314326 0.0431,-0.54528 0.496435,-0.542558 0.452207,0.0027 0.687583,0.176212 0.632554,0.46626 -0.06769,0.356795 -0.947066,0.416223 -1.128989,0.0763 z"
         id="path5758" /><path
         style="fill:#000000;stroke:#000000;stroke-width:1;stroke-dasharray:none;stroke-opacity:1"
         d="m 152.80302,87.687936 c -2.1352,-0.589015 -3.88491,-2.380848 -4.4524,-4.559587 -0.84532,-3.245402 1.15675,-6.708762 4.39913,-7.610014 l 0.77613,-0.215732 0.0105,-1.119449 c 0.0314,-3.356221 2.24016,-6.22602 5.55177,-7.213249 1.24899,-0.372334 3.45938,-0.298088 4.64257,0.155944 0.10255,0.03935 0.34729,-0.308761 0.65545,-0.93227 0.93715,-1.896205 2.87315,-3.448793 4.98567,-3.99829 1.1415,-0.296924 3.23163,-0.204179 4.36219,0.193563 1.6724,0.588366 3.17854,1.845724 4.10162,3.424123 0.48272,0.825412 0.50974,0.847739 1.02845,0.849925 0.88376,0.0038 2.23894,0.349297 3.03618,0.774223 0.81662,0.435252 1.80141,1.329638 2.32048,2.107446 0.2321,0.34779 0.38743,0.4655 0.53293,0.403859 1.5731,-0.666415 2.97888,-0.855346 4.30842,-0.579031 2.58127,0.536459 4.61713,2.782235 4.95203,5.462618 l 0.0911,0.728927 0.82111,0.416777 c 1.55444,0.788993 2.92657,2.563799 3.27738,4.239186 0.61706,2.946872 -0.81266,5.795325 -3.56959,7.111745 l -1.0083,0.481465 -11.51181,0.03573 c -10.69446,0.03319 -11.52318,0.02017 -11.67205,-0.18342 -0.41933,-0.573466 -0.53831,-0.567542 11.33291,-0.564247 7.90494,0.0022 11.35654,-0.03968 11.72159,-0.142196 1.5326,-0.430398 2.91519,-1.607209 3.59304,-3.05825 0.37927,-0.811902 0.40847,-0.974875 0.41255,-2.302892 0.004,-1.395245 -0.007,-1.452514 -0.48187,-2.413502 -0.69079,-1.398367 -1.76944,-2.344258 -3.34255,-2.931148 -0.31135,-0.116155 -0.34178,-0.198502 -0.41086,-1.111864 -0.21587,-2.854297 -2.64597,-5.114456 -5.49902,-5.114456 -0.95518,0 -2.01231,0.257789 -2.75735,0.672396 -0.25634,0.142655 -0.55658,0.238906 -0.66718,0.213892 -0.11061,-0.02502 -0.45386,-0.422194 -0.76279,-0.882621 -1.11938,-1.668341 -2.51326,-2.441955 -4.61147,-2.559396 l -1.20398,-0.06739 -0.41295,-0.855128 c -0.55644,-1.152274 -1.92905,-2.528062 -3.06471,-3.071798 -1.10496,-0.529036 -1.91653,-0.714006 -3.13329,-0.714129 -2.81876,-2.84e-4 -5.35781,1.758356 -6.37253,4.413848 -0.19126,0.500505 -0.42085,0.910011 -0.51021,0.910011 -0.0894,0 -0.50629,-0.119342 -0.92651,-0.265197 -2.44953,-0.850225 -5.17396,-0.203522 -7.04866,1.673158 -1.45798,1.459525 -2.18235,3.399854 -2.01377,5.394192 0.0913,1.080091 0.0688,1.109627 -0.97373,1.278428 -0.26181,0.04239 -0.88434,0.281348 -1.3834,0.531016 -1.09682,0.548716 -1.95737,1.448852 -2.52604,2.642243 -0.37404,0.784945 -0.40037,0.935335 -0.39626,2.263703 0.004,1.32099 0.0336,1.485479 0.41255,2.296635 0.5362,1.147818 1.55995,2.173228 2.71681,2.721206 l 0.87623,0.415049 7.3284,0.0364 c 7.69608,0.03823 7.74746,0.04228 7.53575,0.593978 -0.0733,0.191039 -0.74394,0.209362 -7.27842,0.198862 -5.3762,-0.0086 -7.34786,-0.053 -7.79117,-0.17529 z m 15.80717,-0.04474 c -0.16822,-0.314326 0.0431,-0.54528 0.49643,-0.542558 0.45221,0.0027 0.68759,0.176212 0.63256,0.46626 -0.0677,0.356795 -0.94707,0.416223 -1.12899,0.0763 z"
         id="path5758-4" /><path
         style="fill:#baf9f9;fill-opacity:1;stroke:#000000;stroke-width:2.4552;stroke-linejoin:round;stroke-miterlimit:0;stroke-dasharray:none;stroke-opacity:1"
         d="m 88.346457,269.18749 c -4.287402,-0.21952 -16.793592,-0.43876 -27.791534,-0.48721 -22.426164,-0.0988 -22.418991,-0.0975 -27.484204,-4.74818 -6.463015,-5.93404 -8.044229,-14.59393 -4.037365,-22.11158 2.597078,-4.87262 6.450996,-7.89958 12.332048,-9.68589 2.438552,-0.74069 4.652547,-1.68351 4.919991,-2.09516 0.267443,-0.41164 0.636859,-3.54067 0.820923,-6.95339 0.285067,-5.28538 0.646079,-6.83752 2.435981,-10.47333 5.287382,-10.7402 16.730122,-15.7143 28.49265,-12.38559 3.135462,0.88731 4.931832,1.10299 5.683428,0.68237 0.604417,-0.33825 1.969765,-2.4581 3.034106,-4.71078 2.61231,-5.52897 6.199256,-9.42953 11.129592,-12.1027 3.934527,-2.13325 4.391147,-2.22629 10.926987,-2.22629 6.2216,0 7.12549,0.16044 10.28813,1.82617 4.5938,2.41949 8.68518,6.61022 11.07449,11.34342 l 1.94706,3.8571 5.39732,0.35853 c 8.10396,0.53832 11.729,2.50531 16.43703,8.91893 1.28574,1.75152 2.90563,3.36484 3.59977,3.58515 0.69413,0.22031 3.43361,-0.34896 6.08773,-1.26504 5.80748,-2.00447 9.5673,-2.1006 14.21054,-0.36334 6.30265,2.35812 12.13728,10.07798 12.16758,16.09908 0.0183,3.64502 0.74234,4.71762 4.46044,6.60821 4.30847,2.19078 7.30051,4.99059 9.69894,9.07578 1.50088,2.55642 1.74114,3.68821 1.7332,8.16468 -0.011,6.18326 -1.56224,9.99992 -5.51643,13.57229 -5.59559,5.05528 -2.52194,4.7301 -49.6862,5.25659 -23.22342,0.25924 -45.00147,0.51364 -48.39567,0.56533 -3.394191,0.0517 -9.679132,-0.0856 -13.966533,-0.30515 z"
         id="path6696"
         transform="scale(0.26458333)" /><path
         style="fill:#baf9f9;fill-opacity:1;stroke:#000000;stroke-width:2.4552;stroke-linejoin:round;stroke-miterlimit:0;stroke-dasharray:none;stroke-opacity:1"
         d="m 633.69095,327.68914 c -0.89321,-0.26558 -13.4631,-0.51842 -27.93308,-0.56188 -29.50001,-0.0886 -28.8963,-10e-4 -34.40619,-4.97909 -4.19195,-3.78717 -5.8694,-7.66955 -5.8694,-13.58444 0,-5.44196 0.90002,-8.23365 3.85885,-11.96947 2.1429,-2.70564 8.16053,-6.19478 11.87096,-6.88301 1.32709,-0.24615 2.76465,-0.8714 3.19458,-1.38944 0.4431,-0.5339 0.85439,-3.39403 0.94952,-6.603 0.25851,-8.7204 3.46982,-15.22827 9.80907,-19.87853 6.18964,-4.54052 12.50757,-5.69014 20.2466,-3.68408 6.58248,1.70626 7.25604,1.42178 9.77212,-4.12732 2.51725,-5.55168 6.40843,-9.62679 11.66171,-12.21298 3.87751,-1.90889 4.8499,-2.11118 10.14852,-2.11118 4.98812,0 6.40869,0.25717 9.54673,1.72822 5.00002,2.34392 9.09704,6.28636 11.65012,11.21055 l 2.12701,4.10245 5.06582,0.39065 c 8.2862,0.63898 11.5256,2.56321 18.55375,11.02106 1.77044,2.13059 3.5191,2.20994 7.71699,0.35017 4.29275,-1.9018 11.13375,-1.95789 15.18592,-0.12449 6.51972,2.94982 9.99439,7.69947 11.35201,15.51746 0.47102,2.7124 0.95965,5.02408 1.08586,5.13708 0.1262,0.11299 1.75336,0.97087 3.6159,1.9064 7.87111,3.95351 11.2297,9.1704 11.2297,17.44306 0,4.09906 -0.30657,5.69589 -1.57356,8.19616 -1.55126,3.06127 -5.37081,7.04609 -8.21065,8.56593 -2.92925,1.56768 -10.89409,1.85872 -53.55241,1.95683 -23.93799,0.0551 -43.9621,0.31737 -44.49803,0.58293 -0.53592,0.26555 -1.70522,0.26554 -2.59842,-4e-5 z"
         id="path8078"
         transform="scale(0.26458333)" /></g><g
       id="g22055"
       inkscape:label="ile"
       transform="translate(0,-19.688504)"><path
         style="fill:#000000;stroke-width:0.1;stroke-dasharray:none"
         d="m 111.70009,254.50091 c -0.0492,-0.0192 -0.49158,-0.0953 -0.98317,-0.16923 -0.49158,-0.0739 -0.97423,-0.15224 -1.07254,-0.17409 -0.86938,-0.19318 -1.20906,-0.28118 -2.1451,-0.55575 -0.98815,-0.28985 -2.28631,-0.73964 -3.83543,-1.32889 -1.91725,-0.7293 -5.763383,-2.59004 -8.186048,-3.96037 -4.004771,-2.26521 -8.214003,-5.12214 -11.089901,-7.52703 -0.323325,-0.27037 -0.804271,-0.67258 -1.068768,-0.89379 -3.783948,-3.16472 -7.079547,-7.19904 -8.228772,-10.07331 -0.633834,-1.58525 -0.720548,-2.10392 -0.574205,-3.43456 0.118976,-1.08181 0.0709,-2.09974 -0.147206,-3.11663 -0.05799,-0.27037 -0.113742,-0.53181 -0.123895,-0.58096 -0.01015,-0.0492 -0.143556,-0.41286 -0.29645,-0.80823 -0.704658,-1.82216 -2.261448,-3.44895 -4.258696,-4.45018 -0.840185,-0.42119 -1.22648,-0.55852 -2.55048,-0.90663 -3.050926,-0.80218 -4.877336,-1.70653 -6.824378,-3.37915 -2.991235,-2.56963 -5.364401,-7.14862 -6.137188,-11.84163 -0.05447,-0.33078 -0.111619,-0.66176 -0.126998,-0.7355 -0.01538,-0.0737 -0.05709,-0.40555 -0.09269,-0.73737 l -0.06473,-0.60331 -0.368312,-0.005 c -0.775351,-0.01 -2.377165,-0.22482 -3.292616,-0.44248 -1.80582,-0.42936 -4.113388,-1.4609 -5.834841,-2.60834 -0.88397,-0.58921 -1.269572,-0.87491 -2.145097,-1.58935 -0.561909,-0.45852 -3.070221,-3.02491 -3.540874,-3.62285 -1.06776,-1.35654 -1.414842,-1.82813 -2.104987,-2.86013 -1.786489,-2.67139 -3.267119,-5.51429 -4.631735,-8.89321 -0.503814,-1.2475 -1.486702,-4.04055 -1.745636,-4.96054 -0.05534,-0.19663 -0.159634,-0.55862 -0.231758,-0.80441 -0.501344,-1.70852 -1.031404,-4.04723 -1.326861,-5.85433 -0.378342,-2.31404 -0.49422,-5.16788 -0.271542,-6.68749 0.07692,-0.52493 0.161064,-1.02407 0.186984,-1.10921 0.04122,-0.13541 -0.252368,-0.59803 -0.654959,-1.03203 -0.233185,-0.25138 -1.624326,-2.16365 -2.225136,-3.05868 -2.254437,-3.35845 -4.000903,-7.17961 -4.554868,-9.96576 -0.146723,-0.73795 -0.23056,-1.23638 -0.285638,-1.6982 -0.08304,-0.69625 -0.08245,-2.83485 9.16e-4,-3.35172 0.03568,-0.22121 0.106205,-0.90496 0.156721,-1.51944 0.09568,-1.16387 0.11504,-1.33089 0.222715,-1.92165 0.830488,-4.55648 2.80597,-8.38886 5.874216,-11.39583 1.018037,-0.9977 1.485996,-1.40167 2.39593,-2.0683 2.943091,-2.15614 6.50646,-3.60763 10.904242,-4.4417 1.829349,-0.34694 1.866339,-0.35126 5.476154,-0.63879 0.75786,-0.0604 20.774695,-0.0909 59.582577,-0.0909 50.70742,0 58.68227,0.0175 60.26213,0.13223 1.00144,0.0727 2.00156,0.15711 2.22249,0.18751 0.22092,0.0304 0.52257,0.0678 0.67034,0.0831 0.32271,0.0334 1.96492,0.28828 2.27969,0.35384 0.1229,0.0256 0.44466,0.0895 0.71503,0.14206 0.7967,0.15482 0.81366,0.15878 2.07851,0.48582 2.36912,0.61255 4.10931,1.26149 6.38763,2.38202 1.93049,0.94946 3.8328,2.18966 5.29824,3.45414 0.94464,0.81512 1.25479,1.12199 2.01135,1.99012 2.22567,2.55394 3.80555,5.83647 4.42855,9.20126 0.35585,1.92198 0.48697,4.16003 0.48697,8.31225 0,3.25757 -0.0811,5.11684 -0.35661,8.17819 -0.15653,1.73914 -0.55628,4.29599 -0.93625,5.98839 -0.15452,0.68822 -0.29783,1.32827 -0.31847,1.42233 -0.20053,0.91357 -1.01537,3.29551 -1.50471,4.39854 -0.39866,0.89863 -1.36078,2.61109 -1.57549,2.80421 -0.0273,0.0246 -0.11387,0.14524 -0.19231,0.26813 -0.254,0.39794 -1.32256,1.49972 -1.90056,1.95965 -0.30969,0.24644 -0.81787,0.58003 -1.12926,0.74131 -0.4657,0.24121 -0.63582,0.39633 -0.95868,0.8742 -1.0257,1.51813 -1.81472,3.80127 -2.39383,6.92688 -0.19396,1.04682 -0.51374,3.31202 -0.61826,4.37957 -0.20639,2.10786 -0.2995,3.48421 -0.39603,5.85433 -0.0852,2.09072 -0.1686,2.40087 -0.79912,2.97051 -0.4722,0.42661 -0.91945,0.61046 -1.50198,0.61742 -0.63576,0.008 -0.97302,-0.11953 -2.2123,-0.83392 -0.5868,-0.33825 -1.0945,-0.58347 -1.12823,-0.54493 -0.0337,0.0386 -0.47572,1.02675 -0.98221,2.19601 -1.02856,2.37448 -1.2888,2.76458 -2.06777,3.09968 -0.83032,0.3572 -2.02073,0.11719 -2.60516,-0.52523 -0.19585,-0.21527 -0.95731,-1.39909 -0.95731,-1.48829 0,-0.0755 -1.18899,-1.78276 -1.64568,-2.36299 -0.2515,-0.31953 -0.56229,-0.72173 -0.69065,-0.89379 -0.52365,-0.70191 -2.24629,-2.50621 -3.0776,-3.22349 -1.363,-1.17602 -2.52379,-1.89903 -3.68406,-2.29465 -0.65291,-0.22261 -0.77231,-0.234 -2.27823,-0.21731 -1.7979,0.0199 -2.53129,-0.10913 -3.68415,-0.6483 -0.75387,-0.35256 -1.97743,-1.25784 -2.3305,-1.72427 -0.14085,-0.18606 -0.32723,-0.41577 -0.41418,-0.51046 -0.087,-0.0947 -0.18138,-0.24552 -0.20983,-0.33518 -0.0284,-0.0897 -0.1026,-0.163 -0.16476,-0.163 -0.15165,0 -0.83684,0.92905 -1.05312,1.4279 -0.22916,0.52856 -0.43099,1.50956 -0.42918,2.08607 0.002,0.53424 0.25566,1.94725 0.52509,2.92132 0.22035,0.79657 0.22978,1.2506 0.052,2.50172 -0.69295,4.87596 -3.10756,11.46837 -6.17125,16.84884 -0.77686,1.36431 -1.65746,2.84695 -1.85801,3.12827 -0.18529,0.25991 -0.19253,0.37365 -0.23585,3.70923 -0.0431,3.31926 -0.0516,3.45396 -0.23932,3.8047 -0.29005,0.54189 -0.74457,0.90516 -2.28732,1.8281 l -1.39627,0.83532 -0.0272,4.8324 -0.0272,4.8324 -0.26539,0.52432 c -0.29912,0.59098 -0.63403,0.88483 -1.29442,1.13577 -0.96074,0.36505 -1.47499,0.20457 -3.2678,-1.01978 -0.68759,-0.46957 -1.55182,-1.05842 -1.92051,-1.30855 -0.36869,-0.25012 -1.28777,-0.87843 -2.0424,-1.39624 -0.75463,-0.51781 -1.38565,-0.92786 -1.40228,-0.91124 -0.0357,0.0357 -0.0816,0.27419 -0.27169,1.41158 -0.078,0.46701 -0.15217,0.88932 -0.16475,0.93848 -0.0126,0.0492 -0.0533,0.25026 -0.0905,0.4469 -0.66427,3.51051 -1.77201,6.84354 -3.49039,10.50203 -0.42716,0.90944 -0.97551,2.11605 -1.21859,2.68138 -0.24307,0.56532 -0.47814,1.1083 -0.52238,1.20661 -0.34602,0.76894 -0.92207,2.65905 -1.38926,4.55833 -0.3993,1.62332 -0.76286,2.37269 -1.51866,3.13033 -1.06885,1.07143 -2.81192,1.65987 -4.87094,1.6444 -0.51626,-0.004 -0.97888,-0.0228 -1.02804,-0.042 z m 2.345,-4.78117 c 0.22408,-0.0793 0.30861,-0.17598 0.37509,-0.42916 0.0472,-0.17977 0.21142,-0.82961 0.36496,-1.44409 0.59412,-2.37785 1.47517,-4.76534 2.77872,-7.52987 1.19556,-2.53552 1.7336,-3.79567 2.20398,-5.16195 0.8909,-2.58778 1.57287,-5.71406 2.19586,-10.0662 l 0.11673,-0.81546 -1.03404,-1.11013 c -4.62238,-4.96244 -8.55982,-9.93078 -11.7784,-14.86225 -1.64508,-2.52055 -3.71946,-6.09763 -4.88508,-8.42385 l -0.32246,-0.64352 -0.47037,0.13755 c -2.63276,0.76991 -6.055993,2.48977 -8.683499,4.36264 -7.020102,5.00389 -12.420319,13.32443 -15.163682,23.3639 l -0.301685,1.10403 0.385211,0.75228 c 2.238265,4.37115 9.857834,10.76442 18.734957,15.71973 5.236018,2.92282 10.054888,4.77676 13.451538,5.17515 0.50412,0.0591 1.71843,-0.0178 2.03217,-0.1288 z m 17.7206,-26.79377 c 0,-3.59106 0.03,-3.79457 0.65234,-4.42403 0.20654,-0.20889 1.04821,-0.7807 1.87039,-1.27069 l 1.49488,-0.89087 0.002,-2.95851 c 0.001,-1.95118 0.0364,-3.05649 0.10253,-3.24627 0.0552,-0.15827 0.43303,-0.82036 0.83969,-1.47133 3.7098,-5.93856 6.38421,-12.43565 7.27927,-17.68393 0.13037,-0.76442 0.15473,-1.11248 0.0898,-1.28319 -0.049,-0.12883 -0.18909,-0.72825 -0.31134,-1.33203 -0.78681,-3.88597 0.0583,-7.07129 2.49727,-9.41283 0.75931,-0.72896 1.93787,-1.56943 2.56804,-1.83133 0.17961,-0.0746 0.34999,-0.20978 0.37863,-0.30029 0.0788,-0.24895 0.47555,-3.47783 0.60784,-4.94636 0.17618,-1.95588 0.14664,-7.45615 -0.0492,-9.16135 -0.37477,-3.26311 -0.99541,-6.00384 -1.87483,-8.27922 -0.32079,-0.83001 -0.97148,-2.25449 -1.0902,-2.38666 -0.0147,-0.0164 -0.66359,0.11153 -1.44193,0.28424 -8.16332,1.81138 -19.15171,2.55467 -32.60847,2.20574 -3.11582,-0.0808 -8.65508,-0.3197 -9.14217,-0.39431 -0.26139,-0.04 -0.27675,-0.007 -0.71749,1.55396 -1.08912,3.85679 -1.59206,7.42859 -1.6864,11.97679 -0.16714,8.05698 1.27301,15.70328 4.48631,23.81951 0.4087,1.03233 0.92133,2.25906 1.13917,2.72606 0.21783,0.46701 0.49279,1.06696 0.61102,1.33323 1.65223,3.72113 4.88429,9.22781 7.75907,13.21966 0.47163,0.6549 0.97818,1.36158 1.12565,1.57041 0.58845,0.83324 2.49697,3.24745 3.7878,4.7914 1.85312,2.21651 3.16533,3.67313 5.50021,6.10551 1.52982,1.5937 2.03553,2.06048 2.7716,2.55827 0.4952,0.3349 1.42322,0.97199 2.06228,1.41576 0.63906,0.44377 1.19209,0.81087 1.22896,0.81578 0.0369,0.005 0.067,-1.3915 0.067,-3.10312 z m -53.626594,-5.13318 c 0.712345,-1.63761 2.448747,-4.94993 3.127544,-5.96605 0.0821,-0.12289 0.464017,-0.70609 0.848708,-1.29599 1.57662,-2.41766 3.078909,-4.25334 5.267963,-6.43703 3.411041,-3.40268 6.601992,-5.65013 10.769195,-7.58497 0.994456,-0.46173 3.182894,-1.31713 3.693554,-1.44372 0.13518,-0.0335 0.24579,-0.0666 0.24579,-0.0736 0,-0.007 -0.20411,-0.51543 -0.45358,-1.1299 -4.679109,-11.52496 -6.164303,-23.33014 -4.317948,-34.32151 0.169284,-1.00775 0.467499,-2.49043 0.662699,-3.29485 0.195201,-0.80441 0.35491,-1.50382 0.35491,-1.55423 0,-0.0583 -0.170745,-0.0707 -0.46924,-0.0341 -1.905884,0.23403 -3.763007,0.42939 -5.251018,0.55238 -2.379558,0.19669 -7.712494,0.27025 -9.965762,0.13746 -1.586081,-0.0935 -4.07457,-0.30927 -4.692399,-0.40692 -0.122896,-0.0194 -0.545212,-0.0812 -0.93848,-0.13718 -5.782089,-0.82374 -11.409364,-2.6541 -15.634597,-5.08541 -0.437104,-0.25152 -0.808693,-0.44336 -0.825753,-0.4263 -0.01706,0.0171 0.06613,0.55033 0.184873,1.18503 1.022892,5.46771 1.483923,10.90591 1.482283,17.48458 -0.0011,4.58407 -0.146399,7.50289 -0.579521,11.64507 -0.515208,4.92723 -1.513813,10.60557 -2.723923,15.489 -0.575574,2.32274 -0.581335,3.14115 -0.04165,5.91728 0.487001,2.50514 1.215001,4.37059 2.441642,6.25653 1.448649,2.22727 3.460166,3.73396 5.909647,4.4265 0.467006,0.13203 1.331748,0.37926 1.921649,0.54939 3.488954,1.00623 6.252333,2.9505 7.933229,5.5817 0.306778,0.48022 0.578907,0.87533 0.604729,0.87803 0.02582,0.003 0.22628,-0.40736 0.445461,-0.91124 z M 54.361949,194.22464 c 0.724962,-2.6923 1.75586,-8.12229 2.283368,-12.02705 0.975772,-7.22294 1.199812,-15.27817 0.620229,-22.30007 -0.364897,-4.42088 -1.186392,-9.59158 -2.082068,-13.10507 -0.211364,-0.82912 -0.273472,-0.97078 -0.422201,-0.96295 -0.09591,0.005 -0.77769,0.13402 -1.515067,0.28662 -3.06271,0.63382 -5.594244,0.90406 -9.116661,0.97318 -5.926126,0.1163 -11.587557,-0.64078 -17.406567,-2.32771 -1.232878,-0.35742 -1.177349,-0.4202 -0.787768,0.8907 1.064388,3.58156 3.364211,7.53366 6.562654,11.2775 0.474404,0.5553 0.924995,1.15861 1.001312,1.34069 0.234483,0.55942 0.181579,1.31443 -0.140299,2.00227 -0.573639,1.22584 -0.596908,3.13488 -0.07931,6.50696 1.147766,7.47756 4.658221,15.78691 8.886573,21.03479 0.940611,1.16741 2.509987,2.76323 3.467964,3.52641 2.604976,2.07528 5.288417,3.14516 8.077898,3.22065 l 0.555173,0.015 z m 116.333771,-6.14658 c 0.50255,-1.15198 0.69222,-1.48834 1.03155,-1.82934 0.42026,-0.42233 1.05479,-0.69941 1.60169,-0.69941 0.37802,0 1.02567,0.2252 1.51691,0.52747 0.2493,0.15339 0.49736,0.28851 0.55125,0.30026 0.1094,0.0239 0.11049,0.0171 0.19843,-1.22994 0.69939,-9.919 3.04793,-16.52838 6.44618,-18.1412 2.93032,-1.39073 4.99984,-7.69445 5.4881,-16.71662 0.14014,-2.58967 0.18315,-3.70923 0.14248,-3.70923 -0.0203,0 -0.40907,0.28446 -0.86388,0.63214 -3.40912,2.60609 -8.18484,4.63521 -12.70866,5.39969 -3.82505,0.6464 -7.20222,0.44257 -9.80012,-0.59149 -0.91815,-0.36546 -1.51255,-0.70731 -2.46058,-1.41513 -2.0138,-1.50356 -3.91161,-2.12706 -5.75481,-1.89068 -0.99765,0.12795 -1.47677,0.29491 -3.06125,1.0668 -0.70461,0.34325 -1.37161,0.65094 -1.48221,0.68375 -0.25319,0.0751 -0.25143,0.13297 0.0202,0.66893 0.64127,1.26547 1.5772,4.04239 2.01042,5.96486 0.70339,3.12142 0.98493,5.66014 1.04882,9.45734 0.0638,3.79353 -0.24099,7.75382 -0.89551,11.6347 -0.1296,0.76838 -0.17386,1.27269 -0.12744,1.45183 0.0874,0.33742 0.56999,0.83236 1.0742,1.10179 0.35363,0.18896 0.46649,0.19996 1.78579,0.17406 1.55147,-0.0305 2.4383,0.0871 3.6863,0.48851 1.4641,0.47095 3.42003,1.5936 4.91585,2.82157 1.31334,1.07817 4.01326,3.95616 4.71348,5.02436 0.10937,0.16686 0.22321,0.28832 0.25298,0.26993 0.0298,-0.0184 0.33121,-0.66862 0.66988,-1.44495 z M 90.427887,150.68991 c 3.105829,-0.16465 6.361947,-0.52168 9.742313,-1.06821 l 1.60882,-0.26011 1.74289,0.12121 c 0.95859,0.0667 2.80874,0.16588 4.11144,0.22047 1.3027,0.0546 2.58976,0.11703 2.86013,0.13874 0.27037,0.0217 3.08581,0.0664 6.25653,0.0993 8.186,0.0849 13.80234,-0.13795 19.52932,-0.77488 6.8423,-0.76096 11.43112,-1.89218 15.08912,-3.71971 2.0504,-1.02438 3.42762,-1.36924 5.46806,-1.36924 2.77364,0 5.08399,0.8165 7.59721,2.68495 0.98359,0.73125 1.33746,0.91468 2.30611,1.19538 3.70463,1.07357 9.93069,-0.0857 14.64076,-2.72596 2.45144,-1.37418 4.60345,-3.20362 5.73591,-4.87612 l 0.41516,-0.61314 -0.0888,-0.71503 c -0.5055,-4.07152 -2.44154,-7.60676 -5.53557,-10.10801 -3.9828,-3.21976 -9.57612,-5.05987 -16.93732,-5.5721 -1.67883,-0.11683 -117.084458,-0.12119 -118.842729,-0.005 -2.062104,0.13685 -3.729088,0.33833 -5.170678,0.62496 -5.745456,1.14233 -10.03756,3.76409 -12.645585,7.72433 -1.334887,2.02701 -2.399321,4.97873 -2.599318,7.20803 l -0.06075,0.67713 0.480159,0.1421 c 0.264086,0.0782 0.822032,0.24807 1.239879,0.37758 5.207104,1.614 11.311189,2.46843 16.74332,2.3437 3.844676,-0.0883 7.134586,-0.51256 10.204458,-1.31599 2.055054,-0.53783 2.106256,-0.54781 2.486592,-0.48449 0.621206,0.10342 0.996623,0.35701 1.957423,1.32219 4.989917,5.01268 14.115992,8.26159 24.60417,8.75917 1.416991,0.0672 5.544459,0.0487 7.060944,-0.0317 z"
         id="path5732" /><path
         style="fill:#1c8100;fill-opacity:1;stroke:#000000;stroke-width:1.83736;stroke-linejoin:round;stroke-miterlimit:0;stroke-dasharray:none;stroke-opacity:1"
         d="m 78.813805,130.53342 c -8.608997,-1.22662 -15.039398,-3.87471 -19.692369,-8.10946 -1.862577,-1.69517 -2.268992,-1.7878 -4.877895,-1.11177 -2.929057,0.759 -5.44358,1.09934 -9.154435,1.23907 -5.662864,0.21323 -10.452701,-0.34024 -16.254754,-1.87824 l -3.00755,-0.79724 0.130561,-1.23698 c 0.333732,-3.16188 1.909347,-6.24985 4.548288,-8.91395 1.722041,-1.73846 2.45169,-2.27634 4.375224,-3.22531 2.756596,-1.35995 6.099371,-2.24557 9.803558,-2.5973 1.855719,-0.17621 21.659123,-0.23107 62.630067,-0.1735 l 59.91625,0.0842 2.67375,0.52529 c 8.16752,1.60462 13.44341,4.95605 15.89855,10.09934 0.93658,1.96205 1.48081,3.89733 1.48081,5.26579 0,1.45076 -4.08946,4.97069 -7.65129,6.5857 -2.81673,1.27716 -5.6037,1.96336 -8.55644,2.10673 -3.41949,0.16603 -4.52508,-0.0999 -6.91813,-1.66389 -2.62817,-1.7177 -4.02459,-2.20039 -6.7715,-2.34066 -2.52023,-0.12871 -3.18123,0.0382 -7.77818,1.96425 -3.73447,1.56467 -9.20874,2.67326 -16.40708,3.32259 -5.00505,0.45148 -17.45876,0.58189 -25.03028,0.26211 -6.81854,-0.28798 -7.1686,-0.28037 -10.457643,0.22743 -4.417184,0.68198 -15.213822,0.89096 -18.899512,0.36582 z"
         id="path22072"
         transform="translate(0,19.688504)" /><path
         style="fill:#939393;fill-opacity:1;stroke:#000000;stroke-width:6.94437;stroke-linejoin:round;stroke-miterlimit:0;stroke-dasharray:none;stroke-opacity:1"
         d="m 198.07889,659.94378 c -7.59803,-0.91383 -17.89756,-5.80317 -25.97884,-12.33254 -19.23473,-15.54095 -37.63642,-50.56986 -44.36883,-84.45915 -3.161,-15.91173 -3.61361,-22.82532 -1.91248,-29.21298 2.28937,-8.5965 1.9994,-9.89496 -3.76854,-16.87477 -6.50285,-7.86912 -13.84062,-19.04163 -17.99998,-27.40681 -3.40946,-6.85701 -6.671538,-15.92221 -5.978822,-16.61493 0.230428,-0.23043 5.526562,0.82827 11.769192,2.35267 20.32873,4.96409 29.47423,5.98801 53.22547,5.95908 20.63037,-0.0251 26.03135,-0.50713 41.48147,-3.70194 2.92647,-0.60515 3.41787,0.59217 6.24666,15.2205 8.05624,41.66061 8.40144,89.03121 0.97177,133.34938 -2.40021,14.31728 -6.4247,33.22933 -7.21591,33.90936 -0.33145,0.28487 -3.24347,0.20033 -6.47116,-0.18787 z"
         id="path22185"
         transform="matrix(0.26458333,0,0,0.26458333,0,19.688504)" /><path
         style="fill:#4e4e4e;fill-opacity:1;stroke:#000000;stroke-width:6.94437;stroke-linejoin:round;stroke-miterlimit:0;stroke-dasharray:none;stroke-opacity:1"
         d="m 289.46499,745.61463 c -6.91703,-8.9892 -15.77762,-14.51299 -30.40321,-18.95369 -16.66133,-5.05881 -23.39533,-10.52779 -30.24787,-24.56567 -7.17017,-14.68855 -8.52844,-27.03916 -4.74854,-43.17814 4.10811,-17.54033 7.27242,-36.36462 9.92071,-59.01776 0.7364,-6.29913 1.16886,-21.1786 1.14812,-39.50333 -0.0332,-29.34684 -0.95375,-42.31011 -4.41984,-62.2407 -0.681,-3.91589 -1.08285,-7.11979 -0.89299,-7.11979 0.18986,0 3.95424,1.80797 8.36531,4.01771 13.87113,6.94879 30.06978,12.07269 48.68647,15.40031 14.70931,2.62921 53.88752,3.40327 71.41285,1.41093 6.56857,-0.74674 12.10271,-1.20365 12.2981,-1.01537 0.19537,0.18828 -0.51728,4.59214 -1.5837,9.78637 -8.62115,41.99154 -4.52392,86.37626 12.07385,130.79446 l 4.06227,10.87125 -4.25969,1.5001 c -34.29879,12.07874 -64.33272,40.43362 -82.77619,78.14856 l -4.45136,9.10256 z"
         id="path24188"
         transform="matrix(0.26458333,0,0,0.26458333,0,19.688504)" /><path
         style="fill:#b1b1b1;fill-opacity:1;stroke:#000000;stroke-width:6.94437;stroke-linejoin:round;stroke-miterlimit:0;stroke-dasharray:none;stroke-opacity:1"
         d="m 489.06678,773.49603 c -12.22987,-8.73636 -35.94859,-35.09315 -52.66804,-58.52594 -28.14774,-39.44984 -45.68578,-81.09831 -51.55076,-122.42017 -2.09615,-14.76844 -2.08264,-43.12949 0.027,-56.83036 1.40409,-9.11847 5.26771,-25.86013 6.17805,-26.77047 0.20805,-0.20805 9.45684,0.0615 20.55287,0.59904 25.35198,1.22812 75.12007,0.44669 95.04719,-1.49237 12.56382,-1.22255 27.3116,-3.36011 45.59797,-6.60901 2.86361,-0.50877 2.89493,-0.47088 5.76828,6.97997 3.59096,9.31167 6.17001,20.06914 7.39366,30.83964 2.1559,18.97617 0.11301,53.10195 -3.29975,55.12092 -3.93093,2.32552 -11.15821,8.72389 -13.86987,12.2791 -5.66265,7.42425 -7.54021,19.68029 -4.90523,32.0196 1.11681,5.22982 1.04506,6.47547 -0.84657,14.69891 -3.90226,16.96419 -12.37785,37.10665 -23.94871,56.91474 l -5.459,9.34524 v 11.5774 11.57739 l -4.30472,2.50376 c -2.3676,1.37707 -5.77821,3.81451 -7.57913,5.41653 l -3.2744,2.91277 -0.30085,12.47516 c -0.16547,6.86133 -0.57888,12.45913 -0.91869,12.43955 -0.33981,-0.0196 -3.77752,-2.29271 -7.63935,-5.0514 z"
         id="path25087"
         transform="matrix(0.26458333,0,0,0.26458333,0,19.688504)" /><path
         style="fill:#858585;fill-opacity:1;stroke:#000000;stroke-width:6.94437;stroke-linejoin:round;stroke-miterlimit:0;stroke-dasharray:none;stroke-opacity:1"
         d="m 413.40692,867.27891 c -17.24236,-4.51135 -38.56126,-15.026 -61.5517,-30.35778 -22.25628,-14.84219 -38.68798,-29.52021 -46.93555,-41.92632 -4.86245,-7.31417 -4.88979,-6.45028 0.72291,-22.84256 11.68053,-34.11375 31.21133,-61.18591 56.21603,-77.92251 4.03026,-2.6976 10.04274,-6.26514 13.36109,-7.92785 6.5024,-3.25815 17.38059,-7.42605 17.84702,-6.83797 0.15739,0.19843 2.28435,4.08145 4.72657,8.62893 13.31083,24.785 31.04123,49.69082 51.736,72.67335 12.78423,14.19749 11.72647,11.35342 9.40242,25.28091 -2.78999,16.7198 -6.1068,27.5227 -13.81093,44.98247 -6.32794,14.34092 -10.91746,26.8675 -12.42388,33.90956 -0.37831,1.76846 -1.15265,3.51911 -1.72077,3.89033 -1.93629,1.26521 -9.28668,0.6165 -17.56921,-1.55056 z"
         id="path25848"
         transform="matrix(0.26458333,0,0,0.26458333,0,19.688504)" /><path
         style="fill:#5d5d5d;fill-opacity:1;stroke:#000000;stroke-width:6.94437;stroke-linejoin:round;stroke-miterlimit:0;stroke-dasharray:none;stroke-opacity:1"
         d="m 637.10599,634.65358 c -14.16107,-17.1113 -30.14167,-25.95893 -46.98068,-26.01078 -3.67027,-0.0113 -5.79799,-0.51585 -7.29818,-1.73063 l -2.11755,-1.71469 1.65816,-12.29521 c 2.2325,-16.554 2.89726,-40.93284 1.48954,-54.62636 -1.24689,-12.12908 -4.95381,-28.00508 -8.65826,-37.0816 -1.32848,-3.255 -2.10207,-6.20669 -1.71908,-6.55933 0.38298,-0.35263 3.65948,-1.92687 7.28109,-3.49831 11.10858,-4.82008 18.83877,-3.80869 30.45438,3.98454 9.27743,6.22448 15.18041,8.01181 28.18729,8.53468 12.6677,0.50924 22.59935,-0.98031 35.74078,-5.36041 9.14315,-3.04746 21.90516,-9.36318 28.6837,-14.19512 l 4.47667,-3.19109 0.30564,3.45545 c 0.41239,4.66245 -1.39797,24.70095 -3.14239,34.78228 -1.91891,11.08977 -6.22313,23.6927 -10.09759,29.56612 -1.96241,2.97489 -5.07965,6.05475 -8.05395,7.95739 -5.57613,3.56701 -8.35845,6.91675 -12.40639,14.93659 -5.20166,10.3056 -9.03036,26.69595 -11.08638,47.45984 -0.49351,4.98414 -1.09029,9.25506 -1.32616,9.49092 -0.23587,0.23587 -1.34115,-0.0593 -2.45617,-0.65612 -3.32842,-1.78132 -8.12778,-1.32278 -10.6154,1.01422 -1.22898,1.15457 -3.24044,4.29647 -4.46992,6.98199 -1.22947,2.68552 -2.36163,4.87788 -2.5159,4.8719 -0.15427,-0.006 -2.55423,-2.75829 -5.33325,-6.11627 z"
         id="path26471"
         transform="matrix(0.26458333,0,0,0.26458333,0,19.688504)" /></g><g
       id="g22070"
       inkscape:label="arbres"
       transform="translate(-3.0764757,-13.420994)"><path
         style="fill:#000000;stroke-width:0.147291"
         d="m 76.695205,125.54122 c -0.509212,-0.727 -0.309153,-1.08024 1.307138,-2.30798 1.469979,-1.11659 2.72059,-3.09139 3.274789,-5.1711 0.209715,-0.78699 0.256479,-1.63902 0.262729,-4.78697 l 0.0076,-3.82957 -3.093116,-0.0811 c -2.561385,-0.0671 -3.207061,-0.12848 -3.755929,-0.35685 -4.805983,-1.99973 -6.067919,-7.80365 -2.46276,-11.326771 0.507862,-0.496305 1.253175,-1.055051 1.656251,-1.241654 l 0.732863,-0.339279 v -1.87009 c 0,-1.846106 0.0068,-1.884257 0.53192,-2.974774 0.676543,-1.405035 1.461348,-2.284559 2.668438,-2.990492 l 0.956348,-0.559293 0.157634,-0.951289 c 0.542402,-3.273288 3.400472,-5.561177 6.651532,-5.324558 1.33832,0.09741 2.101329,0.35619 3.199614,1.085191 1.451034,0.963142 2.699366,3.133116 2.699366,4.692307 0,0.432594 0.07524,0.523287 0.67496,0.813607 1.040415,0.503657 2.317351,1.775678 2.881764,2.870672 0.32371,0.628022 0.569885,0.941428 0.714725,0.909928 0.121514,-0.02643 0.1964,-0.143534 0.166417,-0.260238 -0.03001,-0.116705 -0.122405,-0.70947 -0.205386,-1.317257 -0.403818,-2.957997 1.288212,-6.206108 3.973419,-7.627585 0.981439,-0.519549 0.901199,-0.377026 1.157869,-2.056434 0.15009,-0.981982 1.03367,-2.595808 1.89018,-3.452315 2.87568,-2.875682 7.37438,-2.870542 10.21371,0.01167 0.83306,0.845635 1.72056,2.480997 1.86724,3.440647 0.25668,1.679408 0.17643,1.536884 1.15787,2.056434 2.68521,1.421477 4.37724,4.669588 3.97342,7.627584 -0.083,0.607788 -0.1754,1.200553 -0.20538,1.317258 -0.03,0.116704 0.0449,0.233811 0.16641,0.260238 0.14484,0.0315 0.39102,-0.281907 0.71473,-0.909929 0.56441,-1.094994 1.84134,-2.367015 2.88176,-2.870672 0.59972,-0.290319 0.67496,-0.381013 0.67496,-0.813607 0,-0.862321 0.56815,-2.371726 1.23234,-3.273961 1.04946,-1.425597 2.72245,-2.352676 4.51709,-2.503133 0.93269,-0.07819 0.98809,-0.06426 1.29476,0.325603 0.65935,0.838228 0.16695,1.583102 -1.14957,1.739026 -2.26711,0.268505 -3.63088,1.762641 -3.81918,4.18424 -0.10915,1.403837 -0.2499,1.60634 -1.41263,2.032454 -0.96578,0.353938 -2.33235,1.698308 -2.58561,2.543601 l -0.18227,0.608351 0.83626,0.903252 c 1.38014,1.490713 2.15256,3.372891 2.15256,5.24519 0,2.990408 -1.65637,5.717928 -4.26489,7.022918 l -1.07618,0.53839 0.71893,0.33165 0.71892,0.33166 h 9.353 9.35299 l 0.83995,-0.41247 c 2.32895,-1.14368 3.32735,-3.88767 2.26832,-6.23421 -0.63626,-1.409804 -1.58806,-2.194942 -3.25468,-2.684784 -1.26403,-0.371513 -1.42218,-0.697572 -0.98696,-2.034728 0.91681,-2.816691 -0.24089,-5.283341 -2.96091,-6.308677 -0.38862,-0.146493 -0.76069,-0.372145 -0.82683,-0.501447 -0.0661,-0.129303 -0.1598,-0.732204 -0.20814,-1.339781 -0.0693,-0.871194 -0.20273,-1.331151 -0.63126,-2.17614 -0.46863,-0.924076 -0.52039,-1.121909 -0.37625,-1.43826 0.20658,-0.453393 0.76737,-0.724259 1.24913,-0.603343 0.67427,0.169228 1.57768,1.904713 1.78816,3.435114 0.10261,0.745982 0.11954,0.766922 1.06902,1.322204 1.21528,0.71072 1.99907,1.587784 2.67686,2.995416 0.5251,1.090514 0.53192,1.128674 0.53192,2.974742 v 1.870057 l 0.73287,0.339312 c 1.08166,0.500807 2.48579,1.94352 3.03614,3.119579 1.73533,3.708336 0.0614,7.824426 -3.84265,9.448876 -0.54887,0.22837 -1.19454,0.28972 -3.75593,0.35685 l -3.09312,0.0811 0.008,3.82957 c 0.009,4.28065 0.10479,4.9207 1.0193,6.7754 0.70161,1.42289 1.62954,2.54451 2.86547,3.46356 1.14297,0.84992 1.37273,1.27757 1.02208,1.90236 l -0.21239,0.37844 -8.26786,0.038 -8.26785,0.038 -0.30624,-0.38931 c -0.4351,-0.55315 -0.38689,-0.76879 0.30567,-1.36732 1.86743,-1.61387 2.90406,-2.80233 3.50147,-4.01426 0.91104,-1.84822 1.0363,-2.69301 1.03927,-7.00907 l 0.003,-3.7191 -2.68807,-0.004 c -1.47843,-0.002 -2.98448,-0.0719 -3.34678,-0.15539 -1.03797,-0.23917 -2.36974,-0.94518 -3.15955,-1.67494 l -0.72515,-0.67002 h -2.56874 -2.56875 l 0.0723,4.60286 c 0.0796,5.06418 0.1501,5.56392 1.06885,7.5744 0.88331,1.93289 1.85926,3.13738 3.64121,4.49386 1.01873,0.7755 1.14259,0.92247 1.14259,1.35586 0,1.02356 0.50771,0.97359 -9.89411,0.97359 -8.876292,0 -9.367873,-0.0138 -9.599156,-0.26935 -0.134073,-0.14815 -0.243764,-0.47657 -0.243764,-0.72984 0,-0.40145 0.146454,-0.57196 1.142593,-1.33026 1.781937,-1.35648 2.757897,-2.56097 3.641197,-4.49386 0.91876,-2.01048 0.98928,-2.51022 1.06886,-7.5744 l 0.0723,-4.60286 h -2.59167 -2.591675 l -0.669845,0.64182 c -1.569747,1.50409 -2.821462,1.86214 -6.509903,1.86214 h -2.693943 v 3.35992 c 0,3.17773 -0.01628,3.37741 -0.300321,3.68228 -0.44883,0.48177 -1.095078,0.48311 -1.503997,0.003 -0.228801,-0.26857 -0.25776,-0.67305 -0.25776,-3.60029 v -3.29773 h -1.531091 -1.531093 l -0.06754,4.01368 c -0.05797,3.44499 -0.110217,4.17021 -0.36873,5.11838 -0.499364,1.83154 -1.001826,2.80378 -2.52163,4.87923 -0.196397,0.2682 -0.07067,0.27596 4.47132,0.27596 4.198117,0 4.664321,-0.0237 4.584127,-0.23264 -0.259145,-0.67532 0.575184,-1.52288 1.28027,-1.30058 0.178224,0.0562 0.678604,0.40759 1.111958,0.78088 1.972869,1.69941 2.009328,1.759 1.48441,2.42632 l -0.305273,0.3881 h -8.229515 -8.229268 z m 36.337975,-2.43436 c -1.42181,-1.72229 -2.33537,-3.48432 -2.85855,-5.51342 -0.28225,-1.09469 -0.32295,-1.73097 -0.38215,-5.9753 l -0.0662,-4.75014 h -1.88727 -1.88728 l -0.0635,4.75014 c -0.057,4.26131 -0.0956,4.8675 -0.37566,5.8905 -0.61401,2.24295 -1.3711,3.75002 -2.72498,5.42436 l -0.70632,0.8735 h 5.76476 5.76476 z m 21.96091,0.51552 c -0.0611,-0.10126 -0.36425,-0.5061 -0.67361,-0.89965 -0.7052,-0.89708 -1.47348,-2.48772 -1.89538,-3.92414 -0.29037,-0.98859 -0.33163,-1.53423 -0.3927,-5.19202 l -0.0682,-4.08733 h -1.51946 -1.51945 l -0.0628,4.23463 c -0.0693,4.67429 -0.13125,5.07902 -1.08146,7.06864 -0.28014,0.58659 -0.83589,1.49795 -1.23501,2.02526 l -0.72565,0.95873 h 4.64246 c 3.67505,0 4.6193,-0.0384 4.53132,-0.18412 z m -39.76607,-16.71781 0.718923,-0.33166 -1.076174,-0.53838 c -1.980037,-0.99058 -3.537026,-2.94617 -4.038094,-5.07189 -0.618495,-2.623897 0.06817,-5.189802 1.92582,-7.19628 l 0.836308,-0.903312 -0.200757,-0.619849 c -0.280236,-0.865251 -1.617133,-2.183792 -2.56723,-2.531983 -1.167187,-0.427749 -1.303255,-0.625799 -1.414707,-2.059141 -0.07735,-0.99471 -0.185141,-1.403123 -0.534484,-2.025064 -1.32958,-2.367062 -4.484198,-2.876084 -6.514032,-1.051089 -0.871796,0.783819 -1.322977,1.78801 -1.435038,3.193954 -0.04624,0.580217 -0.138198,1.160733 -0.204337,1.290036 -0.06614,0.129302 -0.438214,0.354954 -0.826833,0.501447 -2.730022,1.029106 -3.881089,3.481629 -2.960913,6.308677 0.45119,1.386187 0.30095,1.64764 -1.210745,2.106995 -1.787775,0.543245 -2.866863,1.665063 -3.326157,3.457859 -0.617572,2.41062 0.799916,4.89651 3.230346,5.66516 0.486434,0.15384 2.524864,0.18842 9.747122,0.16535 9.13156,-0.0292 9.132099,-0.0292 9.850982,-0.36083 z m 23.83096,-2.36379 c 0.95385,-0.32513 2.26766,-1.31527 2.82458,-2.12873 0.78705,-1.14959 1.02431,-1.9156 1.03778,-3.35049 0.0104,-1.109876 -0.0405,-1.362704 -0.44887,-2.227542 -0.83027,-1.75848 -1.98347,-2.727778 -3.86316,-3.247113 -1.43345,-0.396048 -1.59505,-0.741584 -1.02161,-2.184492 0.24107,-0.606585 0.32268,-1.125034 0.32486,-2.063698 0.003,-1.09683 -0.0541,-1.375394 -0.45285,-2.227542 -0.75771,-1.619195 -1.84203,-2.602048 -3.49028,-3.163662 -0.37738,-0.128585 -0.74209,-0.343136 -0.81047,-0.476778 -0.0684,-0.133643 -0.1652,-0.750534 -0.21517,-1.370869 -0.18012,-2.235754 -1.18708,-3.811047 -2.96911,-4.644848 -0.75101,-0.351398 -1.07178,-0.413503 -2.13572,-0.413503 -1.04088,0 -1.3897,0.0646 -2.0688,0.383121 -1.99234,0.934482 -3.07682,2.719159 -3.08409,5.075328 -0.003,0.913487 -0.18297,1.170103 -1.02852,1.465118 -1.62171,0.565819 -2.688563,1.5417 -3.439345,3.146093 -0.398769,0.852148 -0.455401,1.130712 -0.452852,2.227542 0.0022,0.938664 0.0838,1.457113 0.324863,2.063698 0.573443,1.442908 0.411846,1.788444 -1.021612,2.184492 -1.856934,0.513048 -3.039083,1.494855 -3.826864,3.178304 -1.46857,3.138266 0.310224,6.921011 3.687257,7.841241 0.965336,0.26305 21.342993,0.20258 22.129983,-0.0657 z m -30.762476,16.58667 c -0.352902,-0.17062 -0.931034,-1.368 -0.931034,-1.92828 0,-0.40058 0.453445,-0.87727 0.899187,-0.9453 0.475439,-0.0726 0.872686,0.22839 1.172178,0.88801 0.381779,0.84086 0.363475,1.4467 -0.0556,1.84041 -0.373156,0.35055 -0.597712,0.3806 -1.084729,0.14516 z"
         id="path6520" /><path
         style="fill:#92ff74;fill-opacity:1;stroke:#000000;stroke-width:0.649605;stroke-linejoin:round;stroke-miterlimit:0;stroke-dasharray:none;stroke-opacity:1"
         d="m 99.257813,104.59628 c -2.835818,-0.10249 -3.219315,-0.20544 -4.382815,-1.17659 -1.90866,-1.59312 -2.557966,-4.318835 -1.553057,-6.519555 0.752179,-1.647248 2.002269,-2.69332 3.959307,-3.313133 0.378127,-0.119756 0.78418,-0.294473 0.902346,-0.38826 0.284996,-0.226201 0.268142,-1.08331 -0.03801,-1.933118 -0.136226,-0.378126 -0.251076,-1.253032 -0.255225,-1.944237 -0.0136,-2.263825 1.174176,-4.016137 3.516961,-5.188575 l 1.20205,-0.601562 0.19578,-1.488577 c 0.30223,-2.298073 1.12101,-3.545208 2.98391,-4.544983 0.45382,-0.243557 0.96036,-0.322702 2.0625,-0.322268 1.68056,7.94e-4 2.41473,0.2975 3.46225,1.399857 0.88994,0.936525 1.32464,1.910795 1.53813,3.447312 0.10215,0.735229 0.26195,1.42879 0.35511,1.54124 0.0932,0.112453 0.65402,0.431258 1.24638,0.708459 1.35497,0.634064 2.23532,1.508276 2.87011,2.850081 0.6127,1.295117 0.66151,2.744153 0.14767,4.383482 -0.31208,0.995624 -0.32004,1.137195 -0.0842,1.497158 0.14921,0.227724 0.5715,0.481301 0.98854,0.593598 1.17773,0.317129 2.25696,0.94347 2.95282,1.713706 2.10215,2.326831 1.97809,5.767165 -0.28283,7.843075 -1.45224,1.3334 -1.40572,1.32298 -6.49087,1.4542 -5.19498,0.13404 -11.40188,0.12946 -15.296874,-0.0113 z"
         id="path8839" /><path
         style="fill:#92ff74;fill-opacity:1;stroke:#000000;stroke-width:0.649605;stroke-linejoin:round;stroke-miterlimit:0;stroke-dasharray:none;stroke-opacity:1"
         d="m 75.109374,106.75967 c -0.963904,-0.44982 -2.046449,-1.55173 -2.449674,-2.4935 -0.147309,-0.34405 -0.268465,-1.08961 -0.269237,-1.6568 -0.0028,-2.0817 1.237935,-3.781554 3.312329,-4.537916 1.625978,-0.592863 1.751489,-0.817795 1.295347,-2.321428 -0.383492,-1.26415 -0.326464,-2.609397 0.153675,-3.625027 0.513882,-1.087004 1.161852,-1.694558 2.538357,-2.380038 l 1.091079,-0.543341 0.136477,-0.944559 c 0.250812,-1.735897 0.604422,-2.65901 1.281131,-3.34445 0.870677,-0.881917 1.80762,-1.287047 2.987183,-1.291651 2.322203,-0.009 3.774252,1.402892 4.134998,4.020825 0.193987,1.407761 0.354338,1.631458 1.60977,2.245683 1.046557,0.512032 2.234411,1.753653 2.400303,2.508946 0.09529,0.433877 -7.94e-4,0.630489 -0.672807,1.378037 -1.621245,1.803212 -2.392582,4.251481 -2.029595,6.442039 0.399384,2.4102 1.959568,4.64918 3.996026,5.7346 0.566275,0.30183 0.988896,0.61461 0.93916,0.69508 -0.261371,0.42291 -2.230205,0.51781 -10.709077,0.51621 l -8.88607,-0.002 -0.859375,-0.40103 z"
         id="path9462" /><path
         style="fill:none;fill-opacity:1;stroke:#000000;stroke-width:2;stroke-linejoin:round;stroke-miterlimit:0;stroke-dasharray:none;stroke-opacity:1"
         d="m 130.38867,82.371093 c 2.76571,-0.269989 3.7059,0.889613 4.74804,3.007813"
         id="path9518"
         sodipodi:nodetypes="cc" /><path
         style="fill:none;fill-opacity:1;stroke:#000000;stroke-width:1.29921;stroke-linejoin:round;stroke-miterlimit:0;stroke-dasharray:none;stroke-opacity:1"
         d="m 120.52673,106.85054 -0.64515,-0.28804 1.1176,-0.57725 c 2.09054,-1.07976 3.65234,-3.3007 4.03588,-5.73916 0.35895,-2.282179 -0.38872,-4.65103 -2.05974,-6.525873 l -0.83066,-0.931982 0.30315,-0.675367 c 0.37038,-0.825161 1.42854,-1.804927 2.57891,-2.387865 1.01479,-0.514231 1.12291,-0.686376 1.35337,-2.154692 0.23218,-1.479259 0.41562,-1.913215 1.15442,-2.730971 0.82151,-0.90932 1.86009,-1.290929 3.53943,-1.300501 1.23523,-0.007 1.36834,0.02786 1.84522,0.483896 0.82855,0.792324 1.5467,2.321936 1.74431,3.715269 0.0973,0.686017 0.22455,1.324411 0.2828,1.418656 0.0583,0.09424 0.427,0.313388 0.81944,0.486987 2.67502,1.183288 3.60256,3.092532 2.93095,6.03309 -0.2267,0.992589 -0.26489,1.45869 -0.13621,1.662681 0.0983,0.155895 0.70483,0.483444 1.34777,0.727879 2.23672,0.850374 3.3529,2.333883 3.34582,4.446913 -0.006,1.82485 -0.82585,3.20014 -2.46923,4.14272 l -0.87856,0.50391 -9.36719,-0.0111 c -8.3766,-0.01 -9.43541,-0.0416 -10.01233,-0.29917 z"
         id="path9739" /><path
         style="fill:#92ff74;fill-opacity:1;stroke:none;stroke-width:1.29921;stroke-linejoin:round;stroke-miterlimit:0;stroke-dasharray:none;stroke-opacity:1"
         d="m 123.35359,106.31669 -1.25578,-0.0979 0.76387,-0.63699 c 1.52117,-1.2685 2.72035,-3.61983 2.96224,-5.808324 0.21477,-1.943102 -0.62505,-4.467447 -2.08083,-6.25457 l -0.75564,-0.927631 0.50231,-0.693426 c 0.29558,-0.408035 1.00768,-0.99365 1.73022,-1.422908 1.38522,-0.822944 1.5411,-1.070104 1.97149,-3.126073 0.46358,-2.21448 1.54544,-3.040988 3.98338,-3.043182 1.00421,-7.94e-4 1.09038,0.0317 1.49874,0.567098 0.6215,0.814826 1.07457,1.9295 1.30419,3.208689 0.26559,1.479568 0.37487,1.646804 1.42292,2.177558 2.52566,1.279046 3.05099,2.481871 2.49642,5.715889 -0.14266,0.831937 -0.1511,1.311735 -0.0279,1.58778 0.1132,0.253691 0.7855,0.705715 1.87433,1.26021 1.48802,0.75778 1.76227,0.969182 2.21933,1.7107 0.44797,0.72676 0.5202,1.00739 0.51221,1.98995 -0.0123,1.51087 -0.58334,2.52858 -1.88666,3.36231 l -0.92346,0.59073 -7.52779,-0.031 c -4.14028,-0.017 -8.09289,-0.075 -8.78357,-0.12891 z"
         id="path9743" /><path
         style="fill:#963f03;fill-opacity:1;stroke:#000000;stroke-width:2;stroke-linejoin:round;stroke-miterlimit:0;stroke-dasharray:none;stroke-opacity:1"
         d="m 88.708984,120.06543 2.116212,3.12598"
         id="path20344"
         sodipodi:nodetypes="cc" /><path
         style="fill:#5d5d5d;fill-opacity:1;stroke:#000000;stroke-width:2;stroke-linejoin:round;stroke-miterlimit:0;stroke-dasharray:none;stroke-opacity:1"
         d="m 87.852586,115.79812 0.530631,3.5466"
         id="path26952"
         sodipodi:nodetypes="cc" /><path
         style="fill:#805741;fill-opacity:1;stroke:#000000;stroke-width:0.324802;stroke-linejoin:round;stroke-miterlimit:0;stroke-dasharray:none;stroke-opacity:1"
         d="m 81.246362,123.74423 c -0.230973,-0.0158 -0.442156,-0.051 -0.469289,-0.0781 -0.03713,-0.0371 -0.0049,-0.11074 0.130188,-0.29762 1.81446,-2.50947 2.527795,-4.29251 2.669289,-6.67212 0.02318,-0.38994 0.06299,-2.00449 0.08846,-3.58789 0.02545,-1.5834 0.05681,-3.03842 0.06966,-3.2334 l 0.02334,-0.35449 h 1.49701 1.497009 l 0.01561,3.06153 0.01561,3.06152 0.289521,1.89062 c 0.159236,1.03985 0.329305,2.02493 0.377928,2.18907 0.100655,0.33981 0.410861,0.98013 0.56502,1.16633 0.195302,0.23589 1.736318,2.53813 1.760305,2.62985 0.01339,0.0512 -0.0013,0.11256 -0.03309,0.13903 -0.03138,0.026 -0.343596,0.0649 -0.693807,0.0863 -0.719859,0.0441 -7.157754,0.0435 -7.802798,-7.9e-4 z"
         id="path26955" /><path
         style="fill:#805741;fill-opacity:1;stroke:#000000;stroke-width:0.324802;stroke-linejoin:round;stroke-miterlimit:0;stroke-dasharray:none;stroke-opacity:1"
         d="m 102.17238,123.73252 c 0.0231,-0.0295 0.20556,-0.25674 0.40549,-0.50489 1.01243,-1.25654 1.51549,-2.034 2.04353,-3.1582 0.40286,-0.85771 0.8757,-2.2797 1.03795,-3.12147 0.16142,-0.83754 0.20779,-2.12067 0.2874,-7.95372 l 0.0286,-2.09473 h 1.85876 1.85876 l 0.0265,1.25684 c 0.0146,0.69125 0.0373,2.11728 0.0503,3.16894 0.0485,3.89379 0.12007,5.16926 0.34185,6.09133 0.51336,2.1344 1.52547,4.07289 3.10453,5.9461 0.17134,0.20325 0.31153,0.38169 0.31153,0.39653 0,0.0148 -2.56438,0.027 -5.69862,0.027 -4.55264,0 -5.69018,-0.0108 -5.65665,-0.0537 z"
         id="path30959" /><path
         style="fill:#805741;fill-opacity:1;stroke:#000000;stroke-width:0.918681;stroke-linejoin:round;stroke-miterlimit:0;stroke-dasharray:none;stroke-opacity:1"
         d="m 126.67325,122.76751 c 0.8484,-1.1825 1.70394,-2.95205 1.94139,-4.01548 0.12739,-0.5705 0.21328,-2.05922 0.28548,-4.94816 0.0568,-2.27269 0.10827,-4.14583 0.11437,-4.16254 0.006,-0.0167 0.65857,-0.0304 1.44991,-0.0304 h 1.43882 l 0.0778,3.8587 c 0.0428,2.12229 0.13822,4.18684 0.21203,4.58791 0.22536,1.22451 1.04043,3.1206 1.88351,4.38159 0.43045,0.64382 0.78264,1.19289 0.78264,1.22016 0,0.0273 -1.99381,0.0496 -4.43069,0.0496 h -4.43069 z"
         id="path30961" /></g></g></svg>